<svg xmlns="http://www.w3.org/2000/svg" viewBox="0 0 100 100">
  <circle cx="50" cy="50" r="45" fill="#25D366" />
  <path d="M50,20c-16.542,0-30,13.458-30,30c0,5.225,1.347,10.141,3.714,14.416L20,80l16.333-3.667C40.604,78.647,45.042,80,50,80c16.542,0,30-13.458,30-30S66.542,20,50,20z M50,75c-4.746,0-9.172-1.377-12.917-3.75l-9.083,2.333l2.357-8.833C28.006,61.056,26.667,56.763,26.667,52c0-12.867,10.467-23.333,23.333-23.333S73.333,39.133,73.333,52S63.542,75,50,75z" fill="white" />
  <path d="M63.641,56.642c-0.543-0.271-3.209-1.583-3.707-1.763c-0.498-0.18-0.86-0.271-1.223,0.271c-0.362,0.543-1.405,1.763-1.722,2.125c-0.317,0.361-0.634,0.407-1.177,0.136c-0.543-0.271-2.293-0.846-4.367-2.696c-1.615-1.44-2.706-3.216-3.023-3.759c-0.317-0.543-0.034-0.836,0.238-1.106c0.244-0.243,0.543-0.634,0.815-0.951c0.271-0.317,0.362-0.543,0.543-0.906c0.181-0.362,0.09-0.679-0.045-0.951c-0.136-0.271-1.223-2.945-1.676-4.031c-0.441-1.058-0.889-0.917-1.223-0.917c-0.317,0-0.679-0.045-1.041-0.045c-0.362,0-0.951,0.136-1.45,0.679c-0.498,0.543-1.903,1.854-1.903,4.526c0,2.672,1.948,5.254,2.219,5.617c0.271,0.362,3.791,5.897,9.376,8.024c4.367,1.718,5.251,1.356,6.202,1.265c0.951-0.09,3.209-1.312,3.662-2.582c0.453-1.269,0.453-2.357,0.317-2.582C64.547,57.049,64.185,56.913,63.641,56.642z" fill="white" />
</svg> 